<?xml version="1.0" encoding="UTF-8"?>
<svg height="16px" viewBox="0 0 16 16" width="16px" xmlns="http://www.w3.org/2000/svg" xmlns:xlink="http://www.w3.org/1999/xlink">
    <filter id="a" height="100%" width="100%" x="0%" y="0%">
        <feColorMatrix color-interpolation-filters="sRGB" values="0 0 0 0 1 0 0 0 0 1 0 0 0 0 1 0 0 0 1 0"/>
    </filter>
    <mask id="b">
        <g filter="url(#a)">
            <rect fill-opacity="0.1" height="19.2" width="19.2" x="-1.6" y="-1.6"/>
        </g>
    </mask>
    <clipPath id="c">
        <rect height="152" width="192"/>
    </clipPath>
    <path d="m 8.011719 0 c -1.648438 -0.0078125 -2.996094 1.324219 -3.011719 2.976562 c -0.003906 0.429688 0.085938 0.859376 0.265625 1.253907 c -0.988281 2.902343 -4.265625 4.078125 -4.265625 5.25 v 5.1875 c 0 0.738281 0.636719 1.332031 1.429688 1.332031 h 11.140624 c 0.792969 0 1.429688 -0.59375 1.429688 -1.332031 v -5.1875 c 0 -1.171875 -3.277344 -2.347657 -4.269531 -5.25 c 0.167969 -0.371094 0.261719 -0.773438 0.269531 -1.179688 v -0.050781 c 0 -1.652344 -1.335938 -2.9921875 -2.988281 -3 z m -0.003907 1 c 1.101563 0.003906 1.992188 0.898438 1.992188 2 v 0.035156 c -0.019531 1.101563 -0.925781 1.980469 -2.023438 1.964844 c -1.101562 -0.015625 -1.988281 -0.914062 -1.976562 -2.019531 c 0.007812 -1.097657 0.90625 -1.984375 2.007812 -1.980469 z m -0.003906 1 c -0.550781 -0.003906 -1 0.441406 -1.003906 0.992188 c -0.003906 0.550781 0.4375 1 0.988281 1.007812 s 1.003907 -0.433594 1.011719 -0.980469 v -0.019531 c 0 -0.550781 -0.445312 -0.996094 -0.996094 -1 z m 0 0"/>
    <g mask="url(#b)">
        <g clip-path="url(#c)" transform="matrix(1 0 0 1 -168 -16)">
            <path d="m 72 28 c -10.492188 0 -19 8.507812 -19 19 s 8.507812 19 19 19 s 19 -8.507812 19 -19 s -8.507812 -19 -19 -19 z m 0 7 c 6.628906 0 12 5.371094 12 12 s -5.371094 12 -12 12 s -12 -5.371094 -12 -12 s 5.371094 -12 12 -12 z m 0 -7 c -10.492188 0 -19 8.507812 -19 19 s 8.507812 19 19 19 s 19 -8.507812 19 -19 s -8.507812 -19 -19 -19 z m 0 7 c 6.628906 0 12 5.371094 12 12 s -5.371094 12 -12 12 s -12 -5.371094 -12 -12 s 5.371094 -12 12 -12 z m 0 0"/>
        </g>
    </g>
</svg>
