<?xml version="1.0" encoding="UTF-8"?>
<svg height="16px" viewBox="0 0 16 16" width="16px" xmlns="http://www.w3.org/2000/svg">
    <path d="m 8.066406 0 c -2.125 0 -4.109375 1.898438 -4.109375 4.023438 c 0 0.871093 0.097657 2.089843 -0.410156 2.59375 c -1.660156 1.386718 -3.546875 2.34375 -3.546875 4.445312 v 3.707031 c 0 0.679688 0.550781 1.230469 1.230469 1.230469 h 13.539062 c 0.679688 0 1.230469 -0.550781 1.230469 -1.230469 v -3.707031 c 0 -2.203125 -1.972656 -3.132812 -3.398438 -4.445312 c -0.589843 -0.851563 -0.605468 -1.625 -0.605468 -2.59375 c 0 -2.125 -1.804688 -4.023438 -3.929688 -4.023438 z m 0 2.613281 c 0.679688 0 1.234375 0.550781 1.234375 1.234375 c 0 0.679688 -0.554687 1.234375 -1.234375 1.234375 c -0.683594 0 -1.234375 -0.554687 -1.234375 -1.234375 c 0 -0.683594 0.550781 -1.234375 1.234375 -1.234375 z m 0 0" fill="#241f31" fill-rule="evenodd"/>
</svg>
