<?xml version="1.0" encoding="UTF-8"?>
<svg height="128px" viewBox="0 0 128 128" width="128px" xmlns="http://www.w3.org/2000/svg" xmlns:xlink="http://www.w3.org/1999/xlink">
    <defs>
        <filter id="a" height="100%" width="100%" x="0%" y="0%">
            <feColorMatrix color-interpolation-filters="sRGB" values="0 0 0 0 1 0 0 0 0 1 0 0 0 0 1 0 0 0 1 0"/>
        </filter>
        <linearGradient id="b" gradientUnits="userSpaceOnUse" x1="19.999996" x2="107.999996" y1="114" y2="114">
            <stop offset="0" stop-color="#f5c211"/>
            <stop offset="0.0454546" stop-color="#f8e45c"/>
            <stop offset="0.0909091" stop-color="#f5c211"/>
            <stop offset="0.906977" stop-color="#f5c211"/>
            <stop offset="0.953488" stop-color="#f8e45c"/>
            <stop offset="1" stop-color="#f5c211"/>
        </linearGradient>
        <mask id="c">
            <g filter="url(#a)">
                <rect fill-opacity="0.1" height="153.6" width="153.6" x="-12.8" y="-12.8"/>
            </g>
        </mask>
        <linearGradient id="d" gradientUnits="userSpaceOnUse" x1="47" x2="82" y1="29.000004" y2="29.000004">
            <stop offset="0" stop-color="#f5c211"/>
            <stop offset="0.0751897" stop-color="#f8e45c"/>
            <stop offset="0.178879" stop-color="#f5c211"/>
            <stop offset="0.863696" stop-color="#f5c211"/>
            <stop offset="0.940996" stop-color="#f8e45c"/>
            <stop offset="1" stop-color="#f5c211"/>
        </linearGradient>
        <clipPath id="e">
            <path d="m 0 0 h 128 v 128 h -128 z m 0 0"/>
        </clipPath>
        <mask id="f">
            <g filter="url(#a)">
                <rect fill-opacity="0.1" height="221.184" width="221.184" x="-46.592" y="-46.592"/>
            </g>
        </mask>
        <clipPath id="g">
            <rect height="152" width="192"/>
        </clipPath>
        <g id="h" clip-path="url(#g)">
            <path d="m 72 28 c -10.492188 0 -19 8.507812 -19 19 s 8.507812 19 19 19 s 19 -8.507812 19 -19 s -8.507812 -19 -19 -19 z m 0 7 c 6.628906 0 12 5.371094 12 12 s -5.371094 12 -12 12 s -12 -5.371094 -12 -12 s 5.371094 -12 12 -12 z m 0 -7 c -10.492188 0 -19 8.507812 -19 19 s 8.507812 19 19 19 s 19 -8.507812 19 -19 s -8.507812 -19 -19 -19 z m 0 7 c 6.628906 0 12 5.371094 12 12 s -5.371094 12 -12 12 s -12 -5.371094 -12 -12 s 5.371094 -12 12 -12 z m 0 0"/>
        </g>
        <clipPath id="i">
            <rect height="128" width="128"/>
        </clipPath>
        <clipPath id="j">
            <rect height="128" width="128"/>
        </clipPath>
        <mask id="k">
            <g filter="url(#a)">
                <g clip-path="url(#j)" filter="url(#a)">
                    <g clip-path="url(#i)">
                        <path d="m 20 111 c 0 5 4 9 9 9 h 70 c 5 0 9 -4 9 -9 v -35 c 0 -8 -21 -16 -27 -36 l -3 -22 c -4 -4 -9.054688 -6 -14 -6 c -5 0 -10 2 -14 6 l -3 22 c -6 20 -27 28 -27 36 z m 36 -80 c 0 -5 3 -8 8 -8 s 8 3 8 8 s -3 8 -8 8 s -8 -3 -8 -8 z m 0 0" fill="url(#b)"/>
                        <path d="m 20 107 c 0 5 4 9 9 9 h 70 c 5 0 9 -4 9 -9 v -35 c 0 -8 -21 -16 -27 -36 l -3 -22 c -4 -4 -9.054688 -6 -14 -6 c -5 0 -10 2 -14 6 l -3 22 c -6 20 -27 28 -27 36 z m 36 -80 c 0 -5 3 -8 8 -8 s 8 3 8 8 s -3 8 -8 8 s -8 -3 -8 -8 z m 0 0" fill="#f8e45c"/>
                        <g clip-path="url(#e)">
                            <g mask="url(#f)">
                                <use transform="matrix(1 0 0 1 -8 -16)" xlink:href="#h"/>
                            </g>
                        </g>
                        <path d="m 64 11 c -10.492188 0 -19 8.507812 -19 19 s 8.507812 19 19 19 s 19 -8.507812 19 -19 s -8.507812 -19 -19 -19 z m 0 7 c 6.628906 0 12 5.371094 12 12 s -5.371094 12 -12 12 s -12 -5.371094 -12 -12 s 5.371094 -12 12 -12 z m 0 -7 c -10.492188 0 -19 8.507812 -19 19 s 8.507812 19 19 19 s 19 -8.507812 19 -19 s -8.507812 -19 -19 -19 z m 0 7 c 6.628906 0 12 5.371094 12 12 s -5.371094 12 -12 12 s -12 -5.371094 -12 -12 s 5.371094 -12 12 -12 z m 0 0" fill="url(#d)"/>
                        <path d="m 64 8 c -10.492188 0 -19 8.507812 -19 19 s 8.507812 19 19 19 s 19 -8.507812 19 -19 s -8.507812 -19 -19 -19 z m 0 7 c 6.628906 0 12 5.371094 12 12 s -5.371094 12 -12 12 s -12 -5.371094 -12 -12 s 5.371094 -12 12 -12 z m 0 0" fill="#f9f06b"/>
                        <path d="m 53 61 v 22.03125 c -1.359375 -0.632812 -2.90625 -1.03125 -4.5 -1.03125 c -5.765625 0 -10.5 4.734375 -10.5 10.5 s 4.734375 10.5 10.5 10.5 c 5.730469 0 10.441406 -4.6875 10.5 -10.40625 c 0 -0.035156 0 -0.058594 0 -0.09375 v -22.5 h 18 v 13.03125 c -1.359375 -0.632812 -2.90625 -1.03125 -4.5 -1.03125 c -5.765625 0 -10.5 4.734375 -10.5 10.5 s 4.734375 10.5 10.5 10.5 c 5.695312 0 10.394531 -4.640625 10.5 -10.3125 c 0 -0.070312 0 -0.117188 0 -0.1875 v -31.5 z m 0 0" fill="#e5a50a"/>
                        <path d="m 53 63 v 22.03125 c -1.359375 -0.632812 -2.90625 -1.03125 -4.5 -1.03125 c -5.765625 0 -10.5 4.734375 -10.5 10.5 s 4.734375 10.5 10.5 10.5 c 5.730469 0 10.441406 -4.6875 10.5 -10.40625 c 0 -0.035156 0 -0.058594 0 -0.09375 v -22.5 h 18 v 13.03125 c -1.359375 -0.632812 -2.90625 -1.03125 -4.5 -1.03125 c -5.765625 0 -10.5 4.734375 -10.5 10.5 s 4.734375 10.5 10.5 10.5 c 5.695312 0 10.394531 -4.640625 10.5 -10.3125 c 0 -0.070312 0 -0.117188 0 -0.1875 v -31.5 z m 0 0" fill="#f5c211"/>
                    </g>
                </g>
            </g>
        </mask>
        <mask id="l">
            <g filter="url(#a)">
                <rect fill-opacity="0.8" height="184.32" width="184.32" x="-28.16" y="-28.16"/>
            </g>
        </mask>
        <linearGradient id="m" gradientTransform="matrix(0 0.37 -0.98462 0 295.38501 -30.360001)" gradientUnits="userSpaceOnUse" x1="300" x2="428" y1="235" y2="235">
            <stop offset="0" stop-color="#f9f06b"/>
            <stop offset="1" stop-color="#f5c211"/>
        </linearGradient>
        <clipPath id="n">
            <rect height="128" width="128"/>
        </clipPath>
        <clipPath id="o">
            <rect height="128" width="128"/>
        </clipPath>
    </defs>
    <path d="m 20 111 c 0 5 4 9 9 9 h 70 c 5 0 9 -4 9 -9 v -35 c 0 -8 -21 -16 -27 -36 l -3 -22 c -4 -4 -9.054688 -6 -14 -6 c -5 0 -10 2 -14 6 l -3 22 c -6 20 -27 28 -27 36 z m 36 -80 c 0 -5 3 -8 8 -8 s 8 3 8 8 s -3 8 -8 8 s -8 -3 -8 -8 z m 0 0" fill="url(#b)"/>
    <path d="m 20 107 c 0 5 4 9 9 9 h 70 c 5 0 9 -4 9 -9 v -35 c 0 -8 -21 -16 -27 -36 l -3 -22 c -4 -4 -9.054688 -6 -14 -6 c -5 0 -10 2 -14 6 l -3 22 c -6 20 -27 28 -27 36 z m 36 -80 c 0 -5 3 -8 8 -8 s 8 3 8 8 s -3 8 -8 8 s -8 -3 -8 -8 z m 0 0" fill="#f8e45c"/>
    <g mask="url(#c)">
        <use transform="matrix(1 0 0 1 -8 -16)" xlink:href="#h"/>
    </g>
    <path d="m 64 11 c -10.492188 0 -19 8.507812 -19 19 s 8.507812 19 19 19 s 19 -8.507812 19 -19 s -8.507812 -19 -19 -19 z m 0 7 c 6.628906 0 12 5.371094 12 12 s -5.371094 12 -12 12 s -12 -5.371094 -12 -12 s 5.371094 -12 12 -12 z m 0 -7 c -10.492188 0 -19 8.507812 -19 19 s 8.507812 19 19 19 s 19 -8.507812 19 -19 s -8.507812 -19 -19 -19 z m 0 7 c 6.628906 0 12 5.371094 12 12 s -5.371094 12 -12 12 s -12 -5.371094 -12 -12 s 5.371094 -12 12 -12 z m 0 0" fill="url(#d)"/>
    <path d="m 64 8 c -10.492188 0 -19 8.507812 -19 19 s 8.507812 19 19 19 s 19 -8.507812 19 -19 s -8.507812 -19 -19 -19 z m 0 7 c 6.628906 0 12 5.371094 12 12 s -5.371094 12 -12 12 s -12 -5.371094 -12 -12 s 5.371094 -12 12 -12 z m 0 0" fill="#f9f06b"/>
    <path d="m 53 61 v 22.03125 c -1.359375 -0.632812 -2.90625 -1.03125 -4.5 -1.03125 c -5.765625 0 -10.5 4.734375 -10.5 10.5 s 4.734375 10.5 10.5 10.5 c 5.730469 0 10.441406 -4.6875 10.5 -10.40625 c 0 -0.035156 0 -0.058594 0 -0.09375 v -22.5 h 18 v 13.03125 c -1.359375 -0.632812 -2.90625 -1.03125 -4.5 -1.03125 c -5.765625 0 -10.5 4.734375 -10.5 10.5 s 4.734375 10.5 10.5 10.5 c 5.695312 0 10.394531 -4.640625 10.5 -10.3125 c 0 -0.070312 0 -0.117188 0 -0.1875 v -31.5 z m 0 0" fill="#e5a50a"/>
    <path d="m 53 63 v 22.03125 c -1.359375 -0.632812 -2.90625 -1.03125 -4.5 -1.03125 c -5.765625 0 -10.5 4.734375 -10.5 10.5 s 4.734375 10.5 10.5 10.5 c 5.730469 0 10.441406 -4.6875 10.5 -10.40625 c 0 -0.035156 0 -0.058594 0 -0.09375 v -22.5 h 18 v 13.03125 c -1.359375 -0.632812 -2.90625 -1.03125 -4.5 -1.03125 c -5.765625 0 -10.5 4.734375 -10.5 10.5 s 4.734375 10.5 10.5 10.5 c 5.695312 0 10.394531 -4.640625 10.5 -10.3125 c 0 -0.070312 0 -0.117188 0 -0.1875 v -31.5 z m 0 0" fill="#f5c211"/>
    <g mask="url(#k)">
        <g clip-path="url(#o)">
            <g mask="url(#l)">
                <g clip-path="url(#n)">
                    <path d="m 128 80.640625 v 47.359375 h -128 v -47.359375 z m 0 0" fill="url(#m)"/>
                    <path d="m 13.308594 80.640625 l 47.355468 47.359375 h 21.214844 l -47.359375 -47.359375 z m 42.421875 0 l 47.363281 47.359375 h 21.214844 l -47.363282 -47.359375 z m 42.429687 0 l 29.839844 29.839844 v -21.210938 l -8.628906 -8.628906 z m -98.160156 7.90625 v 21.214844 l 18.238281 18.238281 h 21.214844 z m 0 0"/>
                </g>
            </g>
        </g>
    </g>
</svg>
