<?xml version="1.0" encoding="UTF-8"?>
<svg height="128px" viewBox="0 0 128 128" width="128px" xmlns="http://www.w3.org/2000/svg" xmlns:xlink="http://www.w3.org/1999/xlink">
    <linearGradient id="a" gradientUnits="userSpaceOnUse" x1="13.456008" x2="118.326286" y1="110.070801" y2="110.070801">
        <stop offset="0" stop-color="#f5c211"/>
        <stop offset="0.0355267" stop-color="#f9f06b"/>
        <stop offset="0.0834366" stop-color="#e5a50a"/>
        <stop offset="0.857903" stop-color="#f5c211"/>
        <stop offset="0.941897" stop-color="#f9f06b"/>
        <stop offset="1" stop-color="#f5c211"/>
    </linearGradient>
    <linearGradient id="b" gradientUnits="userSpaceOnUse" x1="56.910191" x2="71.174553" y1="35" y2="35">
        <stop offset="0" stop-color="#b8910c"/>
        <stop offset="0.262276" stop-color="#dfd761"/>
        <stop offset="0.628525" stop-color="#e5a50a"/>
        <stop offset="0.857903" stop-color="#f5c211"/>
        <stop offset="0.941897" stop-color="#f9f06b"/>
        <stop offset="1" stop-color="#f5c211"/>
    </linearGradient>
    <linearGradient id="c" gradientUnits="userSpaceOnUse" x1="91.27047" x2="91.27047" y1="49.755768" y2="64.784882">
        <stop offset="0" stop-color="#e4d255"/>
        <stop offset="1" stop-color="#f8e45c"/>
    </linearGradient>
    <g fill-rule="evenodd">
        <path d="m 62.992188 11.980469 c -13.808594 0 -25.003907 11.195312 -25.007813 25.007812 c 0.011719 2.386719 0.367187 4.757813 1.046875 7.03125 c 0.734375 2.464844 0.417969 5.945313 -1.414062 7.753907 c -8.082032 7.972656 -25.46875 22.113281 -25.617188 30.207031 v 30.039062 c 0 4.433594 3.566406 8 8 8 h 88 c 4.433594 0 8 -3.566406 8 -8 v -30.039062 c -2.140625 -9.0625 -17.289062 -23.355469 -26.773438 -31.433594 c -1.960937 -1.671875 -2.652343 -4.878906 -2.011718 -7.371094 c 0.515625 -2.015625 0.78125 -4.09375 0.785156 -6.1875 c 0 -13.8125 -11.195312 -25.007812 -25.007812 -25.007812 z m 0 16.980469 c 4.433593 0 8.023437 3.59375 8.023437 8.027343 c 0.003906 4.429688 -3.589844 8.023438 -8.023437 8.023438 c -4.433594 0 -8.023438 -3.59375 -8.023438 -8.023438 c 0 -4.433593 3.59375 -8.023437 8.023438 -8.027343 z m 0 0" fill="url(#a)"/>
        <path d="m 62.992188 11.980469 c -13.808594 0 -25.003907 11.195312 -25.007813 25.007812 c 0.011719 2.386719 0.367187 4.757813 1.046875 7.03125 c 0.734375 2.464844 0.417969 5.945313 -1.414062 7.753907 c -2.011719 1.988281 -4.605469 4.355468 -7.363282 6.917968 h 67.992188 c -3.179688 -3.03125 -6.328125 -5.851562 -9.019532 -8.144531 c -1.960937 -1.671875 -2.652343 -4.878906 -2.011718 -7.371094 c 0.515625 -2.015625 0.78125 -4.09375 0.785156 -6.1875 c 0 -13.8125 -11.195312 -25.007812 -25.007812 -25.007812 z m 0 16.980469 c 4.433593 0 8.023437 3.59375 8.023437 8.027343 c 0.003906 4.429688 -3.589844 8.023438 -8.023437 8.023438 c -4.433594 0 -8.023438 -3.59375 -8.023438 -8.023438 c 0 -4.433593 3.59375 -8.023437 8.023438 -8.027343 z m 0 0" fill="url(#b)"/>
        <path d="m 62.992188 8 c -13.808594 0 -25.003907 11.195312 -25.007813 25.007812 c 0.007813 0.90625 0.058594 1.8125 0.164063 2.710938 c 0.5625 4.957031 0.011718 11.765625 -3.542969 15.300781 c -4.625 4.597657 -10.660157 10.179688 -15.328125 14.429688 c -4 3.640625 -7.277344 10.933593 -7.277344 16.339843 v 26.25 c 0 4.433594 3.566406 8 8 8 h 88 c 4.433594 0 8 -3.566406 8 -8 v -26.25 c 0 -5.40625 -3.125 -12.863281 -7.011719 -16.625 c -4.769531 -4.617187 -11.167969 -10.734374 -16.511719 -15.605468 c -3.707031 -3.378906 -4.917968 -9.738282 -4.546874 -14.714844 c 0.046874 -0.609375 0.070312 -1.222656 0.070312 -1.835938 c 0 -13.8125 -11.195312 -25.007812 -25.007812 -25.007812 z m 0 16.980469 c 4.433593 0 8.023437 3.59375 8.023437 8.027343 c 0.003906 4.429688 -3.589844 8.023438 -8.023437 8.023438 c -4.433594 0 -8.023438 -3.59375 -8.023438 -8.023438 c 0 -4.433593 3.59375 -8.023437 8.023438 -8.027343 z m 0 0" fill="url(#c)"/>
    </g>
    <path d="m 63 12 c -11.597656 0 -21 9.402344 -21 21 c 0 13.679688 9.410156 23.160156 21.007812 23.160156 c 11.597657 0 20.992188 -8.738281 20.992188 -23.160156 c 0 -11.597656 -9.402344 -21 -21 -21 z m 0 7.738281 c 7.324219 0 13.261719 5.9375 13.261719 13.261719 s -5.9375 13.261719 -13.261719 13.261719 s -13.261719 -5.9375 -13.261719 -13.261719 s 5.9375 -13.261719 13.261719 -13.261719 z m 0 0" fill="#eab315"/>
    <path d="m 63 10 c -11.597656 0 -21 9.402344 -21 21 s 9.402344 21 21 21 s 21 -9.402344 21 -21 s -9.402344 -21 -21 -21 z m 0 7.738281 c 7.324219 0 13.261719 5.9375 13.261719 13.261719 s -5.9375 13.261719 -13.261719 13.261719 s -13.261719 -5.9375 -13.261719 -13.261719 s 5.9375 -13.261719 13.261719 -13.261719 z m 0 0" fill="#f8e881"/>
    <path d="m 62.398438 64.070312 c -4.605469 0 -8.398438 3.792969 -8.398438 8.398438 v 12.15625 c -1.277344 -0.609375 -2.699219 -0.957031 -4.199219 -0.957031 c -5.378906 0 -9.800781 4.421875 -9.800781 9.800781 s 4.421875 9.800781 9.800781 9.800781 c 5.363281 0 9.773438 -4.394531 9.800781 -9.75 c 0 -0.019531 0 -0.035156 0 -0.050781 v -21 c 0 -1.578125 1.21875 -2.800781 2.796876 -2.800781 h 11.203124 c 1.578126 0 2.796876 1.222656 2.796876 2.800781 v 12.15625 c -1.273438 -0.609375 -2.699219 -0.957031 -4.199219 -0.957031 c -5.378907 0 -9.800781 4.421875 -9.800781 9.800781 s 4.421874 9.800781 9.800781 9.800781 c 5.378906 0 9.800781 -4.421875 9.800781 -9.800781 v -21 c 0 -4.605469 -3.792969 -8.398438 -8.398438 -8.398438 z m -12.597657 25.199219 c 2.351563 0 4.199219 1.847657 4.199219 4.199219 v 0.042969 c -0.023438 2.332031 -1.863281 4.15625 -4.199219 4.15625 c -2.355469 0 -4.199219 -1.847657 -4.199219 -4.199219 s 1.84375 -4.199219 4.199219 -4.199219 z m 22.398438 0 c 2.351562 0 4.199219 1.847657 4.199219 4.199219 s -1.847657 4.199219 -4.199219 4.199219 c -2.351563 0 -4.199219 -1.847657 -4.199219 -4.199219 s 1.847656 -4.199219 4.199219 -4.199219 z m 0 0" fill="#e5a50a"/>
    <path d="m 62.398438 66 c -4.605469 0 -8.398438 3.792969 -8.398438 8.398438 v 12.160156 c -1.277344 -0.613282 -2.699219 -0.957032 -4.199219 -0.957032 c -5.378906 0 -9.800781 4.417969 -9.800781 9.796876 c 0 5.378906 4.421875 9.800781 9.800781 9.800781 c 5.363281 0 9.773438 -4.394531 9.800781 -9.75 c 0 -0.015625 0 -0.03125 0 -0.050781 v -21 c 0 -1.578126 1.21875 -2.796876 2.796876 -2.796876 h 11.203124 c 1.578126 0 2.796876 1.21875 2.796876 2.796876 v 12.160156 c -1.273438 -0.613282 -2.699219 -0.957032 -4.199219 -0.957032 c -5.378907 0 -9.800781 4.417969 -9.800781 9.796876 c 0 5.378906 4.421874 9.800781 9.800781 9.800781 c 5.378906 0 9.800781 -4.421875 9.800781 -9.800781 v -21 c 0 -4.605469 -3.792969 -8.398438 -8.398438 -8.398438 z m -12.597657 25.199219 c 2.351563 0 4.199219 1.847656 4.199219 4.199219 v 0.046874 c -0.023438 2.332032 -1.863281 4.15625 -4.199219 4.15625 c -2.355469 0 -4.199219 -1.847656 -4.199219 -4.203124 c 0 -2.351563 1.84375 -4.199219 4.199219 -4.199219 z m 22.398438 0 c 2.351562 0 4.199219 1.847656 4.199219 4.199219 c 0 2.355468 -1.847657 4.203124 -4.199219 4.203124 c -2.351563 0 -4.199219 -1.847656 -4.199219 -4.203124 c 0 -2.351563 1.847656 -4.199219 4.199219 -4.199219 z m 0 0" fill="#f6d32d"/>
</svg>
