<?xml version="1.0" encoding="UTF-8" standalone="no"?>
<svg
   height="128px"
   viewBox="0 0 128 128"
   width="128px"
   version="1.1"
   id="svg15549"
   sodipodi:docname="app.drey.EarTag.Devel.svg"
   inkscape:version="1.2.2 (b0a8486541, 2022-12-01)"
   xmlns:inkscape="http://www.inkscape.org/namespaces/inkscape"
   xmlns:sodipodi="http://sodipodi.sourceforge.net/DTD/sodipodi-0.dtd"
   xmlns="http://www.w3.org/2000/svg"
   xmlns:svg="http://www.w3.org/2000/svg">
  <defs
     id="defs15553" />
  <sodipodi:namedview
     id="namedview15551"
     pagecolor="#505050"
     bordercolor="#ffffff"
     borderopacity="1"
     inkscape:showpageshadow="0"
     inkscape:pageopacity="0"
     inkscape:pagecheckerboard="1"
     inkscape:deskcolor="#505050"
     showgrid="false"
     inkscape:current-layer="svg15549" />
  <linearGradient
     id="a"
     gradientUnits="userSpaceOnUse"
     x1="13.456008"
     x2="118.326286"
     y1="110.070801"
     y2="110.070801">
    <stop
       offset="0"
       stop-color="#f5c211"
       id="stop15450" />
    <stop
       offset="0.0355267"
       stop-color="#f9f06b"
       id="stop15452" />
    <stop
       offset="0.0834366"
       stop-color="#e5a50a"
       id="stop15454" />
    <stop
       offset="0.857903"
       stop-color="#f5c211"
       id="stop15456" />
    <stop
       offset="0.941897"
       stop-color="#f9f06b"
       id="stop15458" />
    <stop
       offset="1"
       stop-color="#f5c211"
       id="stop15460" />
  </linearGradient>
  <linearGradient
     id="b"
     gradientUnits="userSpaceOnUse"
     x1="56.910191"
     x2="71.174553"
     y1="35"
     y2="35">
    <stop
       offset="0"
       stop-color="#b8910c"
       id="stop15463" />
    <stop
       offset="0.262276"
       stop-color="#dfd761"
       id="stop15465" />
    <stop
       offset="0.628525"
       stop-color="#e5a50a"
       id="stop15467" />
    <stop
       offset="0.857903"
       stop-color="#f5c211"
       id="stop15469" />
    <stop
       offset="0.941897"
       stop-color="#f9f06b"
       id="stop15471" />
    <stop
       offset="1"
       stop-color="#f5c211"
       id="stop15473" />
  </linearGradient>
  <linearGradient
     id="c"
     gradientUnits="userSpaceOnUse"
     x1="91.27047"
     x2="91.27047"
     y1="49.755768"
     y2="64.784882">
    <stop
       offset="0"
       stop-color="#e4d255"
       id="stop15476" />
    <stop
       offset="1"
       stop-color="#f8e45c"
       id="stop15478" />
  </linearGradient>
  <clipPath
     id="d">
    <rect
       height="128"
       width="128"
       id="rect15481" />
  </clipPath>
  <clipPath
     id="e">
    <rect
       height="128"
       width="128"
       id="rect15484" />
  </clipPath>
  <filter
     id="f"
     height="1"
     width="1"
     x="0"
     y="0">
    <feColorMatrix
       in="SourceGraphic"
       type="matrix"
       values="0 0 0 0 1 0 0 0 0 1 0 0 0 0 1 0 0 0 1 0"
       id="feColorMatrix15487" />
  </filter>
  <mask
     id="g">
    <g
       clip-path="url(#e)"
       filter="url(#f)"
       id="g15506">
      <g
         clip-path="url(#d)"
         id="g15504">
        <path
           d="m 62.992188 11.980469 c -13.808594 0 -25.003907 11.195312 -25.007813 25.007812 c 0.011719 2.386719 0.367187 4.757813 1.046875 7.03125 c 0.734375 2.464844 0.417969 5.945313 -1.414062 7.753907 c -8.082032 7.972656 -25.46875 22.113281 -25.617188 30.207031 v 30.039062 c 0 4.433594 3.566406 8 8 8 h 88 c 4.433594 0 8 -3.566406 8 -8 v -30.039062 c -2.140625 -9.0625 -17.289062 -23.355469 -26.773438 -31.433594 c -1.960937 -1.671875 -2.652343 -4.878906 -2.011718 -7.371094 c 0.515625 -2.015625 0.78125 -4.09375 0.785156 -6.1875 c 0 -13.8125 -11.195312 -25.007812 -25.007812 -25.007812 z m 0 16.980469 c 4.433593 0 8.023437 3.59375 8.023437 8.027343 c 0.003906 4.429688 -3.589844 8.023438 -8.023437 8.023438 c -4.433594 0 -8.023438 -3.59375 -8.023438 -8.023438 c 0 -4.433593 3.59375 -8.023437 8.023438 -8.027343 z m 0 0"
           fill="url(#a)"
           fill-rule="evenodd"
           id="path15490" />
        <path
           d="m 62.992188 11.980469 c -13.808594 0 -25.003907 11.195312 -25.007813 25.007812 c 0.011719 2.386719 0.367187 4.757813 1.046875 7.03125 c 0.734375 2.464844 0.417969 5.945313 -1.414062 7.753907 c -2.011719 1.988281 -4.605469 4.355468 -7.363282 6.917968 h 67.992188 c -3.179688 -3.03125 -6.328125 -5.851562 -9.019532 -8.144531 c -1.960937 -1.671875 -2.652343 -4.878906 -2.011718 -7.371094 c 0.515625 -2.015625 0.78125 -4.09375 0.785156 -6.1875 c 0 -13.8125 -11.195312 -25.007812 -25.007812 -25.007812 z m 0 16.980469 c 4.433593 0 8.023437 3.59375 8.023437 8.027343 c 0.003906 4.429688 -3.589844 8.023438 -8.023437 8.023438 c -4.433594 0 -8.023438 -3.59375 -8.023438 -8.023438 c 0 -4.433593 3.59375 -8.023437 8.023438 -8.027343 z m 0 0"
           fill="url(#b)"
           fill-rule="evenodd"
           id="path15492" />
        <path
           d="m 62.992188 8 c -13.808594 0 -25.003907 11.195312 -25.007813 25.007812 c 0.007813 0.90625 0.058594 1.8125 0.164063 2.710938 c 0.5625 4.957031 0.011718 11.765625 -3.542969 15.300781 c -4.625 4.597657 -10.660157 10.179688 -15.328125 14.429688 c -4 3.640625 -7.277344 10.933593 -7.277344 16.339843 v 26.25 c 0 4.433594 3.566406 8 8 8 h 88 c 4.433594 0 8 -3.566406 8 -8 v -26.25 c 0 -5.40625 -3.125 -12.863281 -7.011719 -16.625 c -4.769531 -4.617187 -11.167969 -10.734374 -16.511719 -15.605468 c -3.707031 -3.378906 -4.917968 -9.738282 -4.546874 -14.714844 c 0.046874 -0.609375 0.070312 -1.222656 0.070312 -1.835938 c 0 -13.8125 -11.195312 -25.007812 -25.007812 -25.007812 z m 0 16.980469 c 4.433593 0 8.023437 3.59375 8.023437 8.027343 c 0.003906 4.429688 -3.589844 8.023438 -8.023437 8.023438 c -4.433594 0 -8.023438 -3.59375 -8.023438 -8.023438 c 0 -4.433593 3.59375 -8.023437 8.023438 -8.027343 z m 0 0"
           fill="url(#c)"
           fill-rule="evenodd"
           id="path15494" />
        <path
           d="m 63 12 c -11.597656 0 -21 9.402344 -21 21 c 0 13.679688 9.410156 23.160156 21.007812 23.160156 c 11.597657 0 20.992188 -8.738281 20.992188 -23.160156 c 0 -11.597656 -9.402344 -21 -21 -21 z m 0 7.738281 c 7.324219 0 13.261719 5.9375 13.261719 13.261719 s -5.9375 13.261719 -13.261719 13.261719 s -13.261719 -5.9375 -13.261719 -13.261719 s 5.9375 -13.261719 13.261719 -13.261719 z m 0 0"
           fill="#eab315"
           id="path15496" />
        <path
           d="m 63 10 c -11.597656 0 -21 9.402344 -21 21 s 9.402344 21 21 21 s 21 -9.402344 21 -21 s -9.402344 -21 -21 -21 z m 0 7.738281 c 7.324219 0 13.261719 5.9375 13.261719 13.261719 s -5.9375 13.261719 -13.261719 13.261719 s -13.261719 -5.9375 -13.261719 -13.261719 s 5.9375 -13.261719 13.261719 -13.261719 z m 0 0"
           fill="#f8e881"
           id="path15498" />
        <path
           d="m 62.398438 64.070312 c -4.605469 0 -8.398438 3.792969 -8.398438 8.398438 v 12.15625 c -1.277344 -0.609375 -2.699219 -0.957031 -4.199219 -0.957031 c -5.378906 0 -9.800781 4.421875 -9.800781 9.800781 s 4.421875 9.800781 9.800781 9.800781 c 5.363281 0 9.773438 -4.394531 9.800781 -9.75 c 0 -0.019531 0 -0.035156 0 -0.050781 v -21 c 0 -1.578125 1.21875 -2.800781 2.796876 -2.800781 h 11.203124 c 1.578126 0 2.796876 1.222656 2.796876 2.800781 v 12.15625 c -1.273438 -0.609375 -2.699219 -0.957031 -4.199219 -0.957031 c -5.378907 0 -9.800781 4.421875 -9.800781 9.800781 s 4.421874 9.800781 9.800781 9.800781 c 5.378906 0 9.800781 -4.421875 9.800781 -9.800781 v -21 c 0 -4.605469 -3.792969 -8.398438 -8.398438 -8.398438 z m -12.597657 25.199219 c 2.351563 0 4.199219 1.847657 4.199219 4.199219 v 0.042969 c -0.023438 2.332031 -1.863281 4.15625 -4.199219 4.15625 c -2.355469 0 -4.199219 -1.847657 -4.199219 -4.199219 s 1.84375 -4.199219 4.199219 -4.199219 z m 22.398438 0 c 2.351562 0 4.199219 1.847657 4.199219 4.199219 s -1.847657 4.199219 -4.199219 4.199219 c -2.351563 0 -4.199219 -1.847657 -4.199219 -4.199219 s 1.847656 -4.199219 4.199219 -4.199219 z m 0 0"
           fill="#e5a50a"
           id="path15500" />
        <path
           d="m 62.398438 66 c -4.605469 0 -8.398438 3.792969 -8.398438 8.398438 v 12.160156 c -1.277344 -0.613282 -2.699219 -0.957032 -4.199219 -0.957032 c -5.378906 0 -9.800781 4.417969 -9.800781 9.796876 c 0 5.378906 4.421875 9.800781 9.800781 9.800781 c 5.363281 0 9.773438 -4.394531 9.800781 -9.75 c 0 -0.015625 0 -0.03125 0 -0.050781 v -21 c 0 -1.578126 1.21875 -2.796876 2.796876 -2.796876 h 11.203124 c 1.578126 0 2.796876 1.21875 2.796876 2.796876 v 12.160156 c -1.273438 -0.613282 -2.699219 -0.957032 -4.199219 -0.957032 c -5.378907 0 -9.800781 4.417969 -9.800781 9.796876 c 0 5.378906 4.421874 9.800781 9.800781 9.800781 c 5.378906 0 9.800781 -4.421875 9.800781 -9.800781 v -21 c 0 -4.605469 -3.792969 -8.398438 -8.398438 -8.398438 z m -12.597657 25.199219 c 2.351563 0 4.199219 1.847656 4.199219 4.199219 v 0.046874 c -0.023438 2.332032 -1.863281 4.15625 -4.199219 4.15625 c -2.355469 0 -4.199219 -1.847656 -4.199219 -4.203124 c 0 -2.351563 1.84375 -4.199219 4.199219 -4.199219 z m 22.398438 0 c 2.351562 0 4.199219 1.847656 4.199219 4.199219 c 0 2.355468 -1.847657 4.203124 -4.199219 4.203124 c -2.351563 0 -4.199219 -1.847656 -4.199219 -4.203124 c 0 -2.351563 1.847656 -4.199219 4.199219 -4.199219 z m 0 0"
           fill="#f6d32d"
           id="path15502" />
      </g>
    </g>
  </mask>
  <mask
     id="h">
    <g
       filter="url(#f)"
       id="g15511">
      <rect
         fill-opacity="0.8"
         height="128"
         width="128"
         id="rect15509" />
    </g>
  </mask>
  <linearGradient
     id="i"
     gradientTransform="matrix(0 0.37 -0.98462 0 295.38501 -30.360001)"
     gradientUnits="userSpaceOnUse"
     x1="300"
     x2="428"
     y1="235"
     y2="235">
    <stop
       offset="0"
       stop-color="#f9f06b"
       id="stop15514" />
    <stop
       offset="1"
       stop-color="#f5c211"
       id="stop15516" />
  </linearGradient>
  <clipPath
     id="j">
    <rect
       height="128"
       width="128"
       id="rect15519" />
  </clipPath>
  <clipPath
     id="k">
    <rect
       height="128"
       width="128"
       id="rect15522" />
  </clipPath>
  <g
     fill-rule="evenodd"
     id="g15531">
    <path
       d="m 62.992188 11.980469 c -13.808594 0 -25.003907 11.195312 -25.007813 25.007812 c 0.011719 2.386719 0.367187 4.757813 1.046875 7.03125 c 0.734375 2.464844 0.417969 5.945313 -1.414062 7.753907 c -8.082032 7.972656 -25.46875 22.113281 -25.617188 30.207031 v 30.039062 c 0 4.433594 3.566406 8 8 8 h 88 c 4.433594 0 8 -3.566406 8 -8 v -30.039062 c -2.140625 -9.0625 -17.289062 -23.355469 -26.773438 -31.433594 c -1.960937 -1.671875 -2.652343 -4.878906 -2.011718 -7.371094 c 0.515625 -2.015625 0.78125 -4.09375 0.785156 -6.1875 c 0 -13.8125 -11.195312 -25.007812 -25.007812 -25.007812 z m 0 16.980469 c 4.433593 0 8.023437 3.59375 8.023437 8.027343 c 0.003906 4.429688 -3.589844 8.023438 -8.023437 8.023438 c -4.433594 0 -8.023438 -3.59375 -8.023438 -8.023438 c 0 -4.433593 3.59375 -8.023437 8.023438 -8.027343 z m 0 0"
       fill="url(#a)"
       id="path15525" />
    <path
       d="m 62.992188 11.980469 c -13.808594 0 -25.003907 11.195312 -25.007813 25.007812 c 0.011719 2.386719 0.367187 4.757813 1.046875 7.03125 c 0.734375 2.464844 0.417969 5.945313 -1.414062 7.753907 c -2.011719 1.988281 -4.605469 4.355468 -7.363282 6.917968 h 67.992188 c -3.179688 -3.03125 -6.328125 -5.851562 -9.019532 -8.144531 c -1.960937 -1.671875 -2.652343 -4.878906 -2.011718 -7.371094 c 0.515625 -2.015625 0.78125 -4.09375 0.785156 -6.1875 c 0 -13.8125 -11.195312 -25.007812 -25.007812 -25.007812 z m 0 16.980469 c 4.433593 0 8.023437 3.59375 8.023437 8.027343 c 0.003906 4.429688 -3.589844 8.023438 -8.023437 8.023438 c -4.433594 0 -8.023438 -3.59375 -8.023438 -8.023438 c 0 -4.433593 3.59375 -8.023437 8.023438 -8.027343 z m 0 0"
       fill="url(#b)"
       id="path15527" />
    <path
       d="m 62.992188 8 c -13.808594 0 -25.003907 11.195312 -25.007813 25.007812 c 0.007813 0.90625 0.058594 1.8125 0.164063 2.710938 c 0.5625 4.957031 0.011718 11.765625 -3.542969 15.300781 c -4.625 4.597657 -10.660157 10.179688 -15.328125 14.429688 c -4 3.640625 -7.277344 10.933593 -7.277344 16.339843 v 26.25 c 0 4.433594 3.566406 8 8 8 h 88 c 4.433594 0 8 -3.566406 8 -8 v -26.25 c 0 -5.40625 -3.125 -12.863281 -7.011719 -16.625 c -4.769531 -4.617187 -11.167969 -10.734374 -16.511719 -15.605468 c -3.707031 -3.378906 -4.917968 -9.738282 -4.546874 -14.714844 c 0.046874 -0.609375 0.070312 -1.222656 0.070312 -1.835938 c 0 -13.8125 -11.195312 -25.007812 -25.007812 -25.007812 z m 0 16.980469 c 4.433593 0 8.023437 3.59375 8.023437 8.027343 c 0.003906 4.429688 -3.589844 8.023438 -8.023437 8.023438 c -4.433594 0 -8.023438 -3.59375 -8.023438 -8.023438 c 0 -4.433593 3.59375 -8.023437 8.023438 -8.027343 z m 0 0"
       fill="url(#c)"
       id="path15529" />
  </g>
  <path
     d="m 63 12 c -11.597656 0 -21 9.402344 -21 21 c 0 13.679688 9.410156 23.160156 21.007812 23.160156 c 11.597657 0 20.992188 -8.738281 20.992188 -23.160156 c 0 -11.597656 -9.402344 -21 -21 -21 z m 0 7.738281 c 7.324219 0 13.261719 5.9375 13.261719 13.261719 s -5.9375 13.261719 -13.261719 13.261719 s -13.261719 -5.9375 -13.261719 -13.261719 s 5.9375 -13.261719 13.261719 -13.261719 z m 0 0"
     fill="#eab315"
     id="path15533" />
  <path
     d="m 63 10 c -11.597656 0 -21 9.402344 -21 21 s 9.402344 21 21 21 s 21 -9.402344 21 -21 s -9.402344 -21 -21 -21 z m 0 7.738281 c 7.324219 0 13.261719 5.9375 13.261719 13.261719 s -5.9375 13.261719 -13.261719 13.261719 s -13.261719 -5.9375 -13.261719 -13.261719 s 5.9375 -13.261719 13.261719 -13.261719 z m 0 0"
     fill="#f8e881"
     id="path15535" />
  <g
     clip-path="url(#k)"
     mask="url(#g)"
     id="g15547">
    <g
       clip-path="url(#j)"
       mask="url(#h)"
       id="g15545">
      <path
         d="m 128 80.640625 v 47.359375 h -128 v -47.359375 z m 0 0"
         fill="url(#i)"
         id="path15541" />
      <path
         d="m 13.308594 80.640625 l 47.355468 47.359375 h 21.214844 l -47.359375 -47.359375 z m 42.421875 0 l 47.363281 47.359375 h 21.214844 l -47.363282 -47.359375 z m 42.429687 0 l 29.839844 29.839844 v -21.210938 l -8.628906 -8.628906 z m -98.160156 7.90625 v 21.214844 l 18.238281 18.238281 h 21.214844 z m 0 0"
         id="path15543" />
    </g>
  </g>
  <path
     d="m 62.398438 64.070312 c -4.605469 0 -8.398438 3.792969 -8.398438 8.398438 v 12.15625 c -1.277344 -0.609375 -2.699219 -0.957031 -4.199219 -0.957031 c -5.378906 0 -9.800781 4.421875 -9.800781 9.800781 s 4.421875 9.800781 9.800781 9.800781 c 5.363281 0 9.773438 -4.394531 9.800781 -9.75 c 0 -0.019531 0 -0.035156 0 -0.050781 v -21 c 0 -1.578125 1.21875 -2.800781 2.796876 -2.800781 h 11.203124 c 1.578126 0 2.796876 1.222656 2.796876 2.800781 v 12.15625 c -1.273438 -0.609375 -2.699219 -0.957031 -4.199219 -0.957031 c -5.378907 0 -9.800781 4.421875 -9.800781 9.800781 s 4.421874 9.800781 9.800781 9.800781 c 5.378906 0 9.800781 -4.421875 9.800781 -9.800781 v -21 c 0 -4.605469 -3.792969 -8.398438 -8.398438 -8.398438 z m -12.597657 25.199219 c 2.351563 0 4.199219 1.847657 4.199219 4.199219 v 0.042969 c -0.023438 2.332031 -1.863281 4.15625 -4.199219 4.15625 c -2.355469 0 -4.199219 -1.847657 -4.199219 -4.199219 s 1.84375 -4.199219 4.199219 -4.199219 z m 22.398438 0 c 2.351562 0 4.199219 1.847657 4.199219 4.199219 s -1.847657 4.199219 -4.199219 4.199219 c -2.351563 0 -4.199219 -1.847657 -4.199219 -4.199219 s 1.847656 -4.199219 4.199219 -4.199219 z m 0 0"
     fill="#e5a50a"
     id="path15537" />
  <path
     d="m 62.398438 66 c -4.605469 0 -8.398438 3.792969 -8.398438 8.398438 v 12.160156 c -1.277344 -0.613282 -2.699219 -0.957032 -4.199219 -0.957032 c -5.378906 0 -9.800781 4.417969 -9.800781 9.796876 c 0 5.378906 4.421875 9.800781 9.800781 9.800781 c 5.363281 0 9.773438 -4.394531 9.800781 -9.75 c 0 -0.015625 0 -0.03125 0 -0.050781 v -21 c 0 -1.578126 1.21875 -2.796876 2.796876 -2.796876 h 11.203124 c 1.578126 0 2.796876 1.21875 2.796876 2.796876 v 12.160156 c -1.273438 -0.613282 -2.699219 -0.957032 -4.199219 -0.957032 c -5.378907 0 -9.800781 4.417969 -9.800781 9.796876 c 0 5.378906 4.421874 9.800781 9.800781 9.800781 c 5.378906 0 9.800781 -4.421875 9.800781 -9.800781 v -21 c 0 -4.605469 -3.792969 -8.398438 -8.398438 -8.398438 z m -12.597657 25.199219 c 2.351563 0 4.199219 1.847656 4.199219 4.199219 v 0.046874 c -0.023438 2.332032 -1.863281 4.15625 -4.199219 4.15625 c -2.355469 0 -4.199219 -1.847656 -4.199219 -4.203124 c 0 -2.351563 1.84375 -4.199219 4.199219 -4.199219 z m 22.398438 0 c 2.351562 0 4.199219 1.847656 4.199219 4.199219 c 0 2.355468 -1.847657 4.203124 -4.199219 4.203124 c -2.351563 0 -4.199219 -1.847656 -4.199219 -4.203124 c 0 -2.351563 1.847656 -4.199219 4.199219 -4.199219 z m 0 0"
     fill="#f6d32d"
     id="path15539"
     style="fill:#f8e881;fill-opacity:1" />
</svg>
