<?xml version="1.0" encoding="UTF-8" standalone="no"?>
<!-- Created with Inkscape (http://www.inkscape.org/) -->

<svg
   inkscape:export-ydpi="96"
   inkscape:export-xdpi="96"
   inkscape:export-filename="Template.png"
   width="192"
   height="152"
   id="svg11300"
   sodipodi:version="0.32"
   inkscape:version="1.2.2 (b0a8486541, 2022-12-01)"
   sodipodi:docname="app.drey.EarTag.Source.svg"
   inkscape:output_extension="org.inkscape.output.svg.inkscape"
   version="1.0"
   style="display:inline;enable-background:new"
   viewBox="0 0 192 152"
   xmlns:inkscape="http://www.inkscape.org/namespaces/inkscape"
   xmlns:sodipodi="http://sodipodi.sourceforge.net/DTD/sodipodi-0.dtd"
   xmlns:xlink="http://www.w3.org/1999/xlink"
   xmlns="http://www.w3.org/2000/svg"
   xmlns:svg="http://www.w3.org/2000/svg"
   xmlns:rdf="http://www.w3.org/1999/02/22-rdf-syntax-ns#"
   xmlns:cc="http://creativecommons.org/ns#"
   xmlns:dc="http://purl.org/dc/elements/1.1/">
  <title
     id="title4162">Adwaita Icon Template</title>
  <defs
     id="defs3">
    <inkscape:path-effect
       effect="fillet_chamfer"
       id="path-effect15174"
       is_visible="true"
       lpeversion="1"
       nodesatellites_param="F,0,0,1,0,0,0,1 @ F,0,0,1,0,0,0,1 @ F,0,1,1,0,9.0826116,0,1 @ F,0,0,1,0,9.7903906,0,1 @ F,0,0,1,0,0,0,1 @ F,0,0,1,0,0,0,1 @ F,0,0,1,0,0,0,1 @ F,0,0,1,0,0,0,1 @ F,0,0,1,0,9.7903906,0,1 @ F,0,0,1,0,9.0826116,0,1 @ F,0,0,1,0,0,0,1 | F,0,0,1,0,0,0,1 @ F,0,0,1,0,0,0,1 @ F,0,0,1,0,0,0,1 @ F,0,0,1,0,0,0,1"
       unit="px"
       method="auto"
       mode="F"
       radius="0"
       chamfer_steps="1"
       flexible="false"
       use_knot_distance="true"
       apply_no_radius="true"
       apply_with_radius="true"
       only_selected="false"
       hide_knots="false" />
    <linearGradient
       inkscape:collect="always"
       id="linearGradient14124">
      <stop
         style="stop-color:#e4d255;stop-opacity:1;"
         offset="0"
         id="stop14120" />
      <stop
         style="stop-color:#f8e45c;stop-opacity:1;"
         offset="1"
         id="stop14122" />
    </linearGradient>
    <linearGradient
       inkscape:collect="always"
       id="linearGradient13473">
      <stop
         style="stop-color:#b8910c;stop-opacity:1;"
         offset="0"
         id="stop13461" />
      <stop
         style="stop-color:#dfd761;stop-opacity:1;"
         offset="0.26227567"
         id="stop13463" />
      <stop
         style="stop-color:#e5a50a;stop-opacity:1"
         offset="0.6285249"
         id="stop13465" />
      <stop
         style="stop-color:#f5c211;stop-opacity:1;"
         offset="0.85790324"
         id="stop13467" />
      <stop
         style="stop-color:#f9f06b;stop-opacity:1"
         offset="0.94189703"
         id="stop13469" />
      <stop
         style="stop-color:#f5c211;stop-opacity:1;"
         offset="1"
         id="stop13471" />
    </linearGradient>
    <inkscape:path-effect
       effect="fillet_chamfer"
       id="path-effect13402"
       is_visible="true"
       lpeversion="1"
       nodesatellites_param="F,0,0,1,0,0,0,1 @ F,0,0,1,0,0,0,1 @ F,0,1,1,0,4.6675527,0,1 @ F,0,0,1,0,0,0,1 @ F,0,0,1,0,0,0,1 @ F,0,0,1,0,0,0,1 @ F,0,0,1,0,0,0,1 @ F,0,0,1,0,0,0,1 @ F,0,0,1,0,0,0,1 @ F,0,0,1,0,4.6675527,0,1 @ F,0,0,1,0,0,0,1 | F,0,0,1,0,0,0,1 @ F,0,0,1,0,0,0,1 @ F,0,0,1,0,0,0,1 @ F,0,0,1,0,0,0,1"
       unit="px"
       method="auto"
       mode="F"
       radius="0"
       chamfer_steps="1"
       flexible="false"
       use_knot_distance="true"
       apply_no_radius="true"
       apply_with_radius="true"
       only_selected="false"
       hide_knots="false" />
    <linearGradient
       inkscape:collect="always"
       id="linearGradient13203">
      <stop
         style="stop-color:#f5c211;stop-opacity:1;"
         offset="0"
         id="stop13199" />
      <stop
         style="stop-color:#f9f06b;stop-opacity:1"
         offset="0.03552669"
         id="stop13275" />
      <stop
         style="stop-color:#e5a50a;stop-opacity:1"
         offset="0.0834366"
         id="stop13277" />
      <stop
         style="stop-color:#f5c211;stop-opacity:1;"
         offset="0.85790324"
         id="stop13273" />
      <stop
         style="stop-color:#f9f06b;stop-opacity:1"
         offset="0.94189703"
         id="stop13271" />
      <stop
         style="stop-color:#f5c211;stop-opacity:1;"
         offset="1"
         id="stop13201" />
    </linearGradient>
    <inkscape:path-effect
       effect="fillet_chamfer"
       id="path-effect2086"
       is_visible="true"
       lpeversion="1"
       nodesatellites_param="F,0,0,1,0,0,0,1 @ F,0,0,1,0,0,0,1 @ F,0,1,1,0,4.6675527,0,1 @ F,0,0,1,0,0,0,1 @ F,0,0,1,0,0,0,1 @ F,0,0,1,0,0,0,1 @ F,0,0,1,0,0,0,1 @ F,0,0,1,0,0,0,1 @ F,0,0,1,0,0,0,1 @ F,0,0,1,0,4.6675527,0,1 @ F,0,0,1,0,0,0,1 | F,0,0,1,0,0,0,1 @ F,0,0,1,0,0,0,1 @ F,0,0,1,0,0,0,1 @ F,0,0,1,0,0,0,1"
       unit="px"
       method="auto"
       mode="F"
       radius="0"
       chamfer_steps="1"
       flexible="false"
       use_knot_distance="true"
       apply_no_radius="true"
       apply_with_radius="true"
       only_selected="false"
       hide_knots="false" />
    <inkscape:path-effect
       effect="fillet_chamfer"
       id="path-effect2080"
       is_visible="true"
       lpeversion="1"
       nodesatellites_param="F,0,0,1,0,0,0,1 @ F,0,0,1,0,0,0,1 @ F,0,1,1,0,9.0826116,0,1 @ F,0,0,1,0,9.7903906,0,1 @ F,0,0,1,0,0,0,1 @ F,0,0,1,0,0,0,1 @ F,0,0,1,0,0,0,1 @ F,0,0,1,0,0,0,1 @ F,0,0,1,0,9.7903906,0,1 @ F,0,0,1,0,9.0826116,0,1 @ F,0,0,1,0,0,0,1 | F,0,0,1,0,0,0,1 @ F,0,0,1,0,0,0,1 @ F,0,0,1,0,0,0,1 @ F,0,0,1,0,0,0,1"
       unit="px"
       method="auto"
       mode="F"
       radius="0"
       chamfer_steps="1"
       flexible="false"
       use_knot_distance="true"
       apply_no_radius="true"
       apply_with_radius="true"
       only_selected="false"
       hide_knots="false" />
    <linearGradient
       y2="236"
       x2="96"
       y1="236"
       x1="32"
       gradientTransform="translate(604.81684,170.58641)"
       gradientUnits="userSpaceOnUse"
       id="linearGradient1099"
       xlink:href="#linearGradient1036" />
    <linearGradient
       id="linearGradient1036">
      <stop
         id="stop1032"
         offset="0"
         style="stop-color:#d5d3cf;stop-opacity:1;" />
      <stop
         id="stop1034"
         offset="1"
         style="stop-color:#f6f5f4;stop-opacity:1" />
    </linearGradient>
    <radialGradient
       r="32"
       fy="-76"
       fx="-244"
       cy="-76"
       cx="-244"
       gradientTransform="matrix(0.88333331,0,0,0.88333331,-460.35018,463.11973)"
       gradientUnits="userSpaceOnUse"
       id="radialGradient1103"
       xlink:href="#linearGradient1069" />
    <linearGradient
       id="linearGradient1069">
      <stop
         id="stop1065"
         offset="0"
         style="stop-color:#d5d3cf;stop-opacity:1" />
      <stop
         id="stop1067-1"
         offset="1"
         style="stop-color:#949390;stop-opacity:1" />
    </linearGradient>
    <linearGradient
       gradientUnits="userSpaceOnUse"
       y2="232"
       x2="64"
       y1="262.5"
       x1="64"
       id="linearGradient1027"
       xlink:href="#linearGradient1025"
       gradientTransform="translate(-470.5864,432.81685)" />
    <linearGradient
       id="linearGradient1025">
      <stop
         id="stop1021"
         offset="0"
         style="stop-color:#9a9996;stop-opacity:1" />
      <stop
         id="stop1023"
         offset="1"
         style="stop-color:#77767b;stop-opacity:1" />
    </linearGradient>
    <inkscape:path-effect
       effect="spiro"
       id="path-effect35304-9"
       is_visible="true" />
    <clipPath
       clipPathUnits="userSpaceOnUse"
       id="clipPath1609-7">
      <path
         sodipodi:nodetypes="cccccc"
         inkscape:connector-curvature="0"
         id="path1611-5"
         d="m 252,116 28,-28 v -8 h -36 v 36 z"
         style="fill:#e74747;stroke:none;stroke-width:0.25px;stroke-linecap:butt;stroke-linejoin:miter;stroke-opacity:1" />
    </clipPath>
    <linearGradient
       id="linearGradient1697">
      <stop
         id="stop1685"
         offset="0"
         style="stop-color:#deddda;stop-opacity:1" />
      <stop
         style="stop-color:#eeeeec;stop-opacity:1"
         offset="0.04545455"
         id="stop1687" />
      <stop
         id="stop1689"
         offset="0.09090909"
         style="stop-color:#deddda;stop-opacity:1" />
      <stop
         style="stop-color:#deddda;stop-opacity:1"
         offset="0.90909094"
         id="stop1691" />
      <stop
         id="stop1693"
         offset="0.95454544"
         style="stop-color:#eeeeec;stop-opacity:1" />
      <stop
         id="stop1695"
         offset="1"
         style="stop-color:#c0bfbc;stop-opacity:1" />
    </linearGradient>
    <clipPath
       clipPathUnits="userSpaceOnUse"
       id="clipPath1289">
      <path
         style="display:inline;opacity:1;vector-effect:none;fill:none;fill-opacity:1;stroke:#000000;stroke-width:4;stroke-linecap:round;stroke-linejoin:round;stroke-miterlimit:4;stroke-dasharray:none;stroke-dashoffset:0;stroke-opacity:1;marker:none;marker-start:none;marker-mid:none;marker-end:none;paint-order:normal;enable-background:new"
         d="m 64,-148 h 64 l 64,-64 64,64 h 192 c 17.728,0 32,14.272 32,32 v 288 c 0,17.728 -14.272,32 -32,32 H 256 l -64,-64 -64,64 H 64 C 46.272,204 32,189.728 32,172 v -288 c 0,-17.728 14.408898,-34.19889 32,-32 z"
         id="path1291"
         inkscape:connector-curvature="0"
         sodipodi:nodetypes="scccsssscccssss" />
    </clipPath>
    <linearGradient
       id="paint3_linear-2-6-5"
       x2="1"
       gradientUnits="userSpaceOnUse"
       gradientTransform="matrix(0,6,-12,0,-64,209.99687)">
      <stop
         stop-color="#C01C27"
         id="stop91-0-7-4" />
      <stop
         offset="1"
         stop-color="#E01B24"
         id="stop93-2-5-7" />
    </linearGradient>
    <clipPath
       clipPathUnits="userSpaceOnUse"
       id="clipPath1609">
      <path
         sodipodi:nodetypes="cccccc"
         inkscape:connector-curvature="0"
         id="path1611"
         d="m 252,116 28,-28 v -8 h -36 v 36 z"
         style="fill:#e74747;stroke:none;stroke-width:0.25px;stroke-linecap:butt;stroke-linejoin:miter;stroke-opacity:1" />
    </clipPath>
    <linearGradient
       id="b-0"
       gradientUnits="userSpaceOnUse"
       x1="-51.217152"
       x2="36.782848"
       y1="101"
       y2="101"
       gradientTransform="translate(71.21715,185)">
      <stop
         offset="0"
         stop-color="#f5c211"
         id="stop15" />
      <stop
         offset="0.04545457"
         stop-color="#f8e45c"
         id="stop17" />
      <stop
         offset="0.09090911"
         stop-color="#f5c211"
         id="stop19" />
      <stop
         offset="0.90697676"
         stop-color="#f5c211"
         id="stop21" />
      <stop
         offset="0.95348841"
         stop-color="#f8e45c"
         id="stop23" />
      <stop
         offset="1"
         stop-color="#f5c211"
         id="stop25" />
    </linearGradient>
    <linearGradient
       inkscape:collect="always"
       id="linearGradient21334">
      <stop
         style="stop-color:#f5c211;stop-opacity:1;"
         offset="0"
         id="stop21322" />
      <stop
         style="stop-color:#f8e45c;stop-opacity:1;"
         offset="0.07518968"
         id="stop21324" />
      <stop
         style="stop-color:#f5c211;stop-opacity:1;"
         offset="0.17887852"
         id="stop21326" />
      <stop
         style="stop-color:#f5c211;stop-opacity:1;"
         offset="0.8636958"
         id="stop21328" />
      <stop
         style="stop-color:#f8e45c;stop-opacity:1;"
         offset="0.94099593"
         id="stop21330" />
      <stop
         style="stop-color:#f5c211;stop-opacity:1;"
         offset="1"
         id="stop21332" />
    </linearGradient>
    <linearGradient
       inkscape:collect="always"
       xlink:href="#b-0"
       id="linearGradient788"
       gradientUnits="userSpaceOnUse"
       gradientTransform="translate(-108.78285,185)"
       x1="-51.217152"
       y1="101"
       x2="36.782848"
       y2="101" />
    <linearGradient
       inkscape:collect="always"
       xlink:href="#linearGradient21334"
       id="linearGradient790"
       gradientUnits="userSpaceOnUse"
       gradientTransform="translate(-164,-54.21037)"
       x1="31"
       y1="255.21037"
       x2="66"
       y2="255.21037" />
    <linearGradient
       inkscape:collect="always"
       xlink:href="#linearGradient13203"
       id="linearGradient13205"
       x1="13.456008"
       y1="282.0708"
       x2="118.32629"
       y2="282.0708"
       gradientUnits="userSpaceOnUse" />
    <linearGradient
       inkscape:collect="always"
       xlink:href="#linearGradient13473"
       id="linearGradient13459"
       gradientUnits="userSpaceOnUse"
       x1="56.910191"
       y1="207"
       x2="71.174553"
       y2="207" />
    <linearGradient
       inkscape:collect="always"
       xlink:href="#linearGradient14124"
       id="linearGradient14126"
       x1="91.27047"
       y1="221.75577"
       x2="91.27047"
       y2="236.78488"
       gradientUnits="userSpaceOnUse" />
    <inkscape:path-effect
       effect="fillet_chamfer"
       id="path-effect2080-7"
       is_visible="true"
       lpeversion="1"
       nodesatellites_param="F,0,0,1,0,0,0,1 @ F,0,0,1,0,0,0,1 @ F,0,1,1,0,9.0826116,0,1 @ F,0,0,1,0,9.7903906,0,1 @ F,0,0,1,0,0,0,1 @ F,0,0,1,0,0,0,1 @ F,0,0,1,0,0,0,1 @ F,0,0,1,0,0,0,1 @ F,0,0,1,0,9.7903906,0,1 @ F,0,0,1,0,9.0826116,0,1 @ F,0,0,1,0,0,0,1 | F,0,0,1,0,0,0,1 @ F,0,0,1,0,0,0,1 @ F,0,0,1,0,0,0,1 @ F,0,0,1,0,0,0,1"
       unit="px"
       method="auto"
       mode="F"
       radius="0"
       chamfer_steps="1"
       flexible="false"
       use_knot_distance="true"
       apply_no_radius="true"
       apply_with_radius="true"
       only_selected="false"
       hide_knots="false" />
  </defs>
  <sodipodi:namedview
     stroke="#ef2929"
     fill="#f57900"
     id="base"
     pagecolor="#ffffff"
     bordercolor="#666666"
     borderopacity="0.25490196"
     inkscape:pageopacity="0.0"
     inkscape:pageshadow="2"
     inkscape:zoom="2.8284271"
     inkscape:cx="-43.310291"
     inkscape:cy="101.11627"
     inkscape:current-layer="layer9"
     showgrid="true"
     inkscape:grid-bbox="true"
     inkscape:document-units="px"
     inkscape:showpageshadow="false"
     inkscape:window-width="1920"
     inkscape:window-height="1011"
     inkscape:window-x="0"
     inkscape:window-y="0"
     width="400px"
     height="300px"
     inkscape:snap-nodes="true"
     inkscape:snap-bbox="true"
     objecttolerance="7"
     gridtolerance="12"
     guidetolerance="13"
     inkscape:window-maximized="1"
     inkscape:pagecheckerboard="false"
     showguides="false"
     inkscape:guide-bbox="true"
     inkscape:locked="false"
     inkscape:measure-start="0,0"
     inkscape:measure-end="0,0"
     inkscape:object-nodes="true"
     inkscape:bbox-nodes="true"
     inkscape:snap-global="true"
     inkscape:object-paths="true"
     inkscape:snap-intersection-paths="true"
     inkscape:snap-bbox-edge-midpoints="true"
     inkscape:snap-bbox-midpoints="true"
     showborder="true"
     inkscape:snap-center="true"
     inkscape:snap-object-midpoints="true"
     inkscape:snap-midpoints="true"
     inkscape:snap-smooth-nodes="true"
     inkscape:snap-text-baseline="true"
     borderlayer="true"
     inkscape:deskcolor="#d1d1d1">
    <inkscape:grid
       type="xygrid"
       id="grid5883"
       spacingx="2"
       spacingy="2"
       enabled="true"
       visible="true"
       empspacing="4"
       originx="8"
       originy="8" />
    <sodipodi:guide
       position="72,16"
       orientation="0,1"
       id="guide1073"
       inkscape:locked="false"
       inkscape:label=""
       inkscape:color="rgb(0,0,255)" />
    <sodipodi:guide
       position="20,72"
       orientation="1,0"
       id="guide1075"
       inkscape:locked="false"
       inkscape:label=""
       inkscape:color="rgb(0,0,255)" />
    <sodipodi:guide
       position="72,112"
       orientation="0,1"
       id="guide1099"
       inkscape:locked="false"
       inkscape:label=""
       inkscape:color="rgb(0,0,255)" />
    <sodipodi:guide
       position="72,136"
       orientation="0,1"
       id="guide993"
       inkscape:locked="false"
       inkscape:label=""
       inkscape:color="rgb(0,0,255)" />
    <sodipodi:guide
       position="112,72"
       orientation="1,0"
       id="guide995"
       inkscape:locked="false"
       inkscape:label=""
       inkscape:color="rgb(0,0,255)" />
    <sodipodi:guide
       position="8.0000001,72"
       orientation="1,0"
       id="guide867"
       inkscape:locked="false"
       inkscape:label=""
       inkscape:color="rgb(0,0,255)" />
    <sodipodi:guide
       position="128,72"
       orientation="1,0"
       id="guide869"
       inkscape:locked="false"
       inkscape:label=""
       inkscape:color="rgb(0,0,255)" />
    <sodipodi:guide
       position="72,124"
       orientation="0,1"
       id="guide871"
       inkscape:locked="false"
       inkscape:label=""
       inkscape:color="rgb(0,0,255)" />
    <inkscape:grid
       type="xygrid"
       id="grid873"
       spacingx="1"
       spacingy="1"
       empspacing="8"
       color="#000000"
       opacity="0.49019608"
       empcolor="#000000"
       empopacity="0.08627451"
       dotted="true"
       originx="8"
       originy="8" />
    <sodipodi:guide
       position="32,72"
       orientation="1,0"
       id="guide877"
       inkscape:locked="false"
       inkscape:label=""
       inkscape:color="rgb(0,0,255)" />
    <sodipodi:guide
       position="124,72"
       orientation="1,0"
       id="guide879"
       inkscape:locked="false"
       inkscape:label=""
       inkscape:color="rgb(0,0,255)" />
    <sodipodi:guide
       position="72,128"
       orientation="0,1"
       id="guide881"
       inkscape:locked="false"
       inkscape:label=""
       inkscape:color="rgb(0,0,255)" />
    <sodipodi:guide
       position="72,20"
       orientation="0,1"
       id="guide883"
       inkscape:locked="false"
       inkscape:label=""
       inkscape:color="rgb(0,0,255)" />
    <sodipodi:guide
       position="16,72"
       orientation="1,0"
       id="guide885"
       inkscape:locked="false"
       inkscape:label=""
       inkscape:color="rgb(0,0,255)" />
    <sodipodi:guide
       position="136,72"
       orientation="1,0"
       id="guide887"
       inkscape:locked="false"
       inkscape:label=""
       inkscape:color="rgb(0,0,255)" />
    <sodipodi:guide
       position="72,8"
       orientation="0,1"
       id="guide897"
       inkscape:locked="false"
       inkscape:label=""
       inkscape:color="rgb(0,0,255)" />
    <sodipodi:guide
       position="72,32"
       orientation="0,1"
       id="guide899"
       inkscape:locked="false"
       inkscape:label=""
       inkscape:color="rgb(0,0,255)" />
    <sodipodi:guide
       position="264,264"
       orientation="-0.70710678,0.70710678"
       id="guide950"
       inkscape:locked="false"
       inkscape:label=""
       inkscape:color="rgb(0,0,255)" />
    <sodipodi:guide
       position="72,72"
       orientation="0.70710678,0.70710678"
       id="guide952"
       inkscape:locked="false"
       inkscape:label=""
       inkscape:color="rgb(0,0,255)" />
  </sodipodi:namedview>
  <metadata
     id="metadata4">
    <rdf:RDF>
      <cc:Work
         rdf:about="">
        <dc:format>image/svg+xml</dc:format>
        <dc:type
           rdf:resource="http://purl.org/dc/dcmitype/StillImage" />
        <dc:creator>
          <cc:Agent>
            <dc:title>GNOME Design Team</dc:title>
          </cc:Agent>
        </dc:creator>
        <dc:source />
        <cc:license
           rdf:resource="http://creativecommons.org/licenses/by-sa/4.0/" />
        <dc:title>Adwaita Icon Template</dc:title>
        <dc:subject>
          <rdf:Bag />
        </dc:subject>
        <dc:date />
        <dc:rights>
          <cc:Agent>
            <dc:title />
          </cc:Agent>
        </dc:rights>
        <dc:publisher>
          <cc:Agent>
            <dc:title />
          </cc:Agent>
        </dc:publisher>
        <dc:identifier />
        <dc:relation />
        <dc:language />
        <dc:coverage />
        <dc:description />
        <dc:contributor>
          <cc:Agent>
            <dc:title />
          </cc:Agent>
        </dc:contributor>
      </cc:Work>
      <cc:License
         rdf:about="http://creativecommons.org/licenses/by-sa/4.0/">
        <cc:permits
           rdf:resource="http://creativecommons.org/ns#Reproduction" />
        <cc:permits
           rdf:resource="http://creativecommons.org/ns#Distribution" />
        <cc:requires
           rdf:resource="http://creativecommons.org/ns#Notice" />
        <cc:requires
           rdf:resource="http://creativecommons.org/ns#Attribution" />
        <cc:permits
           rdf:resource="http://creativecommons.org/ns#DerivativeWorks" />
        <cc:requires
           rdf:resource="http://creativecommons.org/ns#ShareAlike" />
      </cc:License>
    </rdf:RDF>
  </metadata>
  <g
     id="layer1"
     inkscape:label="App Icon"
     inkscape:groupmode="layer"
     style="display:inline"
     transform="translate(8,-156)">
    <g
       inkscape:groupmode="layer"
       id="layer4"
       inkscape:label="template"
       style="display:inline"
       sodipodi:insensitive="true">
      <rect
         inkscape:label="0"
         y="172"
         x="9.2651362e-08"
         height="128"
         width="128"
         id="hicolor"
         style="display:inline;overflow:visible;visibility:visible;fill:#f0f0f0;fill-opacity:0;fill-rule:nonzero;stroke:none;stroke-width:0.5;marker:none;enable-background:accumulate" />
      <rect
         style="display:inline;overflow:visible;visibility:visible;fill:#f0f0f0;fill-opacity:0;fill-rule:nonzero;stroke:none;stroke-width:0.5;marker:none;enable-background:accumulate"
         id="symbolic"
         width="16"
         height="16"
         x="160"
         y="172"
         inkscape:label="0" />
    </g>
    <g
       inkscape:groupmode="layer"
       id="layer2"
       inkscape:label="baseplate"
       style="display:inline"
       sodipodi:insensitive="true">
      <g
         style="display:inline;fill:#000000;enable-background:new"
         transform="matrix(7.9911709,0,0,8.0036407,-167.7909,-4846.0776)"
         id="g12027"
         inkscape:export-xdpi="12"
         inkscape:export-ydpi="12" />
      <rect
         style="display:inline;overflow:visible;visibility:visible;fill:#f0f0f0;fill-opacity:1;fill-rule:nonzero;stroke:none;stroke-width:0.5;marker:none;enable-background:accumulate"
         id="128"
         width="128"
         height="128"
         x="9.2651362e-08"
         y="172"
         inkscape:label="0" />
      <g
         id="g883"
         style="fill:none;fill-opacity:0.25098;stroke:#a579b3;stroke-opacity:1"
         transform="translate(-24,24)" />
      <g
         id="g900"
         style="fill:none;fill-opacity:0.25098;stroke:#a579b3;stroke-opacity:1"
         transform="translate(-24,24)" />
      <rect
         inkscape:label=""
         y="172"
         x="160"
         height="16"
         width="16"
         id="16"
         style="display:inline;overflow:visible;visibility:visible;fill:#f0f0f0;fill-opacity:1;fill-rule:nonzero;stroke:none;stroke-width:0.5;marker:none;enable-background:accumulate" />
      <text
         xml:space="preserve"
         style="font-style:normal;font-variant:normal;font-weight:bold;font-stretch:normal;font-size:4px;line-height:125%;font-family:Cantarell;-inkscape-font-specification:'Cantarell, Bold';text-align:start;writing-mode:lr-tb;text-anchor:start;display:inline;fill:#000000;fill-opacity:1;stroke:none;stroke-width:0.332649;enable-background:new"
         x="0"
         y="167"
         id="text863"
         inkscape:label="icon-name"><tspan
           style="font-size:4px;stroke-width:0.332649"
           sodipodi:role="line"
           id="tspan861"
           x="0"
           y="167">Hicolor</tspan></text>
      <text
         inkscape:label="icon-name"
         id="text867"
         y="167"
         x="160"
         style="font-style:normal;font-variant:normal;font-weight:bold;font-stretch:normal;font-size:4px;line-height:125%;font-family:Cantarell;-inkscape-font-specification:'Cantarell, Bold';text-align:start;writing-mode:lr-tb;text-anchor:start;display:inline;fill:#000000;fill-opacity:1;stroke:none;stroke-width:0.332649;enable-background:new"
         xml:space="preserve"><tspan
           y="167"
           x="160"
           id="tspan865"
           sodipodi:role="line"
           style="font-size:4px;stroke-width:0.332649">Symbolic</tspan></text>
    </g>
    <g
       inkscape:groupmode="layer"
       id="layer9"
       inkscape:label="icons"
       style="display:inline">
      <path
         id="path761-3"
         style="font-variation-settings:normal;display:inline;fill:#000000;fill-opacity:1;stroke-width:1;stroke-linecap:butt;stroke-linejoin:miter;stroke-miterlimit:4;stroke-dasharray:none;stroke-dashoffset:0;stroke-opacity:1;enable-background:new;stop-color:#000000"
         d="m 223,172 c -0.79545,0 -1.5902,0.29608 -2.22656,0.88867 l -0.47852,3.25977 C 219.34038,179.11138 216,180.29724 216,181.48242 v 5.1836 c 0,0.74072 0.63618,1.33398 1.43164,1.33398 h 11.13672 C 229.36382,188 230,187.40674 230,186.66602 v -5.1836 c 0,-1.18518 -3.34038,-2.37104 -4.29492,-5.33398 l -0.47852,-3.25977 C 224.5902,172.29608 223.78669,172 223,172 Z m 0,2 a 1,1 0 0 1 1,1 1,1 0 0 1 -1,1 1,1 0 0 1 -1,-1 1,1 0 0 1 1,-1 z" />
      <path
         d="m -160,283 c 0,5 4,9 9,9 h 70 c 5,0 9,-4 9,-9 v -35 c 0,-8 -21,-16 -27,-36 l -3,-22 c -4,-4 -9.05509,-6.00001 -14,-6 -5,0 -10,2 -14,6 l -3,22 c -6,20 -27,28 -27,36 z m 36,-80 c 0,-5 3,-8 8,-8 5,0 8,3 8,8 0,5 -3,8 -8,8 -5,0 -8,-3 -8,-8 z"
         fill="#8ff0a3"
         id="path772"
         style="font-variation-settings:normal;display:inline;fill:url(#linearGradient788);fill-opacity:1;stroke:none;stroke-width:1;stroke-linecap:butt;stroke-linejoin:miter;stroke-miterlimit:4;stroke-dasharray:none;stroke-dashoffset:0;stroke-opacity:1;marker:none;marker-start:none;marker-mid:none;marker-end:none;paint-order:normal;enable-background:new;stop-color:#000000"
         sodipodi:nodetypes="cssssccccccccscsc" />
      <path
         d="m -160,279 c 0,5 4,9 9,9 h 70 c 5,0 9,-4 9,-9 v -35 c 0,-8 -21,-16 -27,-36 l -3,-22 c -4,-4 -9.05509,-6.00001 -14,-6 -5,0 -10,2 -14,6 l -3,22 c -6,20 -27,28 -27,36 z m 36,-80 c 0,-5 3,-8 8,-8 5,0 8,3 8,8 0,5 -3,8 -8,8 -5,0 -8,-3 -8,-8 z"
         fill="#8ff0a3"
         id="path774"
         style="display:inline;fill:#f8e45c;stroke-width:0.983437;enable-background:new"
         sodipodi:nodetypes="cssssccccccccscsc" />
      <path
         id="path776"
         style="font-variation-settings:normal;display:inline;opacity:0.1;fill:#000000;fill-opacity:1;stroke:none;stroke-width:1;stroke-linecap:butt;stroke-linejoin:miter;stroke-miterlimit:4;stroke-dasharray:none;stroke-dashoffset:0;stroke-opacity:1;marker:none;marker-start:none;marker-mid:none;marker-end:none;paint-order:normal;enable-background:new;stop-color:#000000"
         d="m -116,184 a 19,19 0 0 0 -19,19 19,19 0 0 0 19,19 19,19 0 0 0 19,-19 19,19 0 0 0 -19,-19 z m 0,7 a 12,12 0 0 1 12,12 12,12 0 0 1 -12,12 12,12 0 0 1 -12,-12 12,12 0 0 1 12,-12 z m 0,-7 a 19,19 0 0 0 -19,19 19,19 0 0 0 19,19 19,19 0 0 0 19,-19 19,19 0 0 0 -19,-19 z m 0,7 a 12,12 0 0 1 12,12 12,12 0 0 1 -12,12 12,12 0 0 1 -12,-12 12,12 0 0 1 12,-12 z" />
      <path
         id="path778"
         style="font-variation-settings:'wght' 800;display:inline;fill:url(#linearGradient790);fill-opacity:1;stroke:none;stroke-width:2.00001;stroke-linecap:round;stroke-linejoin:miter;stroke-miterlimit:4;stroke-dasharray:none;stroke-dashoffset:0;stroke-opacity:1;marker:none;marker-start:none;marker-mid:none;marker-end:none;paint-order:normal;enable-background:new;stop-color:#000000"
         d="m -116,183 a 19,19 0 0 0 -19,19 19,19 0 0 0 19,19 19,19 0 0 0 19,-19 19,19 0 0 0 -19,-19 z m 0,7 a 12,12 0 0 1 12,12 12,12 0 0 1 -12,12 12,12 0 0 1 -12,-12 12,12 0 0 1 12,-12 z m 0,-7 a 19,19 0 0 0 -19,19 19,19 0 0 0 19,19 19,19 0 0 0 19,-19 19,19 0 0 0 -19,-19 z m 0,7 a 12,12 0 0 1 12,12 12,12 0 0 1 -12,12 12,12 0 0 1 -12,-12 12,12 0 0 1 12,-12 z" />
      <path
         id="path780"
         style="display:inline;fill:#f9f06b;stroke-width:0.215909;marker:none;enable-background:new"
         d="m -116,180 a 19,19 0 0 0 -19,19 19,19 0 0 0 19,19 19,19 0 0 0 19,-19 19,19 0 0 0 -19,-19 z m 0,7 a 12,12 0 0 1 12,12 12,12 0 0 1 -12,12 12,12 0 0 1 -12,-12 12,12 0 0 1 12,-12 z" />
      <path
         d="m -127,233 v 22.03125 C -128.35937,254.39843 -129.90625,254 -131.5,254 c -5.76562,0 -10.5,4.73436 -10.5,10.5 0,5.76561 4.73438,10.5 10.5,10.5 5.73047,0 10.44141,-4.6875 10.5,-10.40625 0,-0.0351 0,-0.0585 0,-0.0936 V 242 h 18 v 13.03125 C -104.35938,254.39843 -105.90625,254 -107.5,254 c -5.76563,0 -10.5,4.73436 -10.5,10.5 0,5.76561 4.73437,10.5 10.5,10.5 5.69531,0 10.394532,-4.64064 10.5,-10.3125 0,-0.0702 0,-0.1173 0,-0.1875 V 233 Z m 0,0"
         fill="#222222"
         id="path782"
         style="display:inline;fill:#e5a50a;stroke-width:3;enable-background:new" />
      <path
         d="m -127,235 v 22.03125 C -128.35937,256.39843 -129.90625,256 -131.5,256 c -5.76562,0 -10.5,4.73436 -10.5,10.5 0,5.76561 4.73438,10.5 10.5,10.5 5.73047,0 10.44141,-4.6875 10.5,-10.40625 0,-0.0351 0,-0.0585 0,-0.0936 V 244 h 18 v 13.03125 C -104.35938,256.39843 -105.90625,256 -107.5,256 c -5.76563,0 -10.5,4.73436 -10.5,10.5 0,5.76561 4.73437,10.5 10.5,10.5 5.69531,0 10.394532,-4.64064 10.5,-10.3125 0,-0.0702 0,-0.1173 0,-0.1875 V 235 Z m 0,0"
         fill="#222222"
         id="path784"
         style="display:inline;fill:#f5c211;stroke-width:3;enable-background:new" />
      <path
         id="path2082"
         style="font-variation-settings:'wght' 700;fill:url(#linearGradient13205);fill-opacity:1;fill-rule:evenodd;stroke:none;stroke-width:2;stroke-linecap:round;stroke-linejoin:round;stroke-dasharray:0.999997, 2;stop-color:#000000"
         d="m 62.992188,183.98047 c -13.810106,6e-4 -25.005258,11.19575 -25.00586,25.00586 0.01127,2.39004 0.365024,4.75787 1.043937,7.03295 0.736065,2.46659 0.420484,5.94719 -1.413461,7.75597 C 29.535628,231.74554 12.147583,245.88686 12,253.98047 v 30.03906 c 0,4.432 3.568004,8 8,8 h 88 c 4.432,0 8,-3.568 8,-8 v -30.03906 c -2.14202,-9.06396 -17.287566,-23.3569 -26.773376,-31.43284 -1.962738,-1.67102 -2.653186,-4.87853 -2.012813,-7.37168 0.517925,-2.01642 0.783545,-4.09556 0.786189,-6.18962 -6.02e-4,-13.81087 -11.196944,-25.00634 -25.007812,-25.00586 z m 0,16.98242 c 4.431867,-7.9e-4 8.025104,3.59157 8.02539,8.02344 7.91e-4,4.43263 -3.592762,8.02618 -8.02539,8.02539 -4.431866,-2.9e-4 -8.024229,-3.59352 -8.023438,-8.02539 2.86e-4,-4.4311 3.592334,-8.02315 8.023438,-8.02344 z"
         inkscape:path-effect="#path-effect2086"
         inkscape:original-d="m 62.992188,183.98047 c -13.810106,6e-4 -25.005258,11.19575 -25.00586,25.00586 0.01864,3.95222 0.97378,7.84374 2.78711,11.35547 C 35.856986,226.82906 12.172349,244.52865 12,253.98047 v 30.03906 c 0,4.432 3.568004,8 8,8 h 88 c 4.432,0 8,-3.568 8,-8 V 253.98047 C 113.55924,243.6524 94.234937,226.53511 85.638672,219.5625 87.189352,216.25208 87.995384,212.64194 88,208.98633 87.999398,195.17546 76.803056,183.97999 62.992188,183.98047 Z m 0,16.98242 c 4.431867,-7.9e-4 8.025104,3.59157 8.02539,8.02344 7.91e-4,4.43263 -3.592762,8.02618 -8.02539,8.02539 -4.431866,-2.9e-4 -8.024229,-3.59352 -8.023438,-8.02539 2.86e-4,-4.4311 3.592334,-8.02315 8.023438,-8.02344 z"
         sodipodi:nodetypes="ccccssssccccccccc" />
      <path
         id="path13398"
         style="font-variation-settings:'wght' 700;fill:url(#linearGradient13459);fill-opacity:1;fill-rule:evenodd;stroke:none;stroke-width:2;stroke-linecap:round;stroke-linejoin:round;stroke-dasharray:0.999997, 2;stop-color:#000000"
         d="M 62.992188 183.98047 C 49.182095 183.98107 37.98693 195.17623 37.986328 208.98633 C 37.9976 211.37636 38.350385 213.74446 39.029297 216.01953 C 39.765361 218.48612 39.45113 221.96661 37.617188 223.77539 C 35.60436 225.7606 33.013243 228.12932 30.255859 230.69141 L 98.246094 230.69141 C 95.068312 227.65895 91.919147 224.83926 89.226562 222.54688 C 87.263827 220.87586 86.572518 217.66893 87.212891 215.17578 C 87.730815 213.15936 87.997356 211.08038 88 208.98633 C 87.999398 195.17547 76.803042 183.97999 62.992188 183.98047 z M 62.992188 200.96289 C 67.42405 200.9621 71.017292 204.55446 71.017578 208.98633 C 71.018369 213.41895 67.424811 217.01251 62.992188 217.01172 C 58.560326 217.01143 54.967959 213.41819 54.96875 208.98633 C 54.969036 204.55523 58.561088 200.96318 62.992188 200.96289 z " />
      <path
         id="rect1057"
         style="font-variation-settings:'wght' 700;fill:url(#linearGradient14126);fill-opacity:1;fill-rule:evenodd;stroke:none;stroke-width:2;stroke-linecap:round;stroke-linejoin:round;stroke-dasharray:0.999997, 2;stop-color:#000000"
         d="m 62.992188,180 c -13.810106,6e-4 -25.005258,11.19575 -25.00586,25.00586 0.0043,0.90885 0.0581,1.81448 0.160476,2.71303 0.564753,4.95659 0.01322,11.76693 -3.542612,15.30057 -4.624863,4.596 -10.658121,10.17929 -15.328145,14.43042 C 15.277681,241.0896 12,248.38331 12,253.79039 v 26.24867 c 0,4.432 3.568004,8 8,8 h 88 c 4.432,0 8,-3.568 8,-8 v -26.24867 c 0,-5.40708 -3.12432,-12.86491 -7.01026,-16.62469 -4.77283,-4.61786 -11.169168,-10.73677 -16.514205,-15.60653 -3.707442,-3.37778 -4.918687,-9.73978 -4.54556,-14.71447 0.04582,-0.61085 0.06925,-1.2242 0.07003,-1.83884 C 87.999398,191.19499 76.803056,179.99952 62.992188,180 Z m 0,16.98242 c 4.431867,-7.9e-4 8.025104,3.59157 8.02539,8.02344 7.91e-4,4.43263 -3.592762,8.02618 -8.02539,8.02539 -4.431866,-2.9e-4 -8.024229,-3.59352 -8.023438,-8.02539 2.86e-4,-4.4311 3.592334,-8.02315 8.023438,-8.02344 z"
         inkscape:path-effect="#path-effect2080"
         inkscape:original-d="m 62.992188,180 c -13.810106,6e-4 -25.005258,11.19575 -25.00586,25.00586 0.01864,3.95222 0.97378,7.84374 2.78711,11.35547 C 35.856986,222.84859 12,244 12,244 v 36.03906 c 0,4.432 3.568004,8 8,8 h 88 c 4.432,0 8,-3.568 8,-8 V 244 C 116,244 94.234937,222.55464 85.638672,215.58203 87.189352,212.27161 87.995384,208.66147 88,205.00586 87.999398,191.19499 76.803056,179.99952 62.992188,180 Z m 0,16.98242 c 4.431867,-7.9e-4 8.025104,3.59157 8.02539,8.02344 7.91e-4,4.43263 -3.592762,8.02618 -8.02539,8.02539 -4.431866,-2.9e-4 -8.024229,-3.59352 -8.023438,-8.02539 2.86e-4,-4.4311 3.592334,-8.02315 8.023438,-8.02344 z"
         sodipodi:nodetypes="ccccssssccccccccc" />
      <path
         id="path11664"
         style="display:inline;fill:#eab315;fill-opacity:1;stroke-width:0.215909;marker:none;enable-background:new"
         d="m 63.000003,184 c -11.59798,0 -21.000001,9.40202 -21.000001,21 0,13.67856 9.410308,23.16108 21.008287,23.16108 11.59798,0 20.991715,-8.73744 20.991715,-23.16108 0,-11.59798 -9.402021,-21 -21.000001,-21 z m 0,7.73685 c 7.325037,0 13.263154,5.93811 13.263158,13.26315 10e-7,7.32504 -5.938117,13.26316 -13.263158,13.26316 -7.325041,0 -13.26316,-5.93812 -13.263159,-13.26316 4e-6,-7.32504 5.938122,-13.26315 13.263159,-13.26315 z"
         sodipodi:nodetypes="ssssssssss" />
      <path
         id="path2047"
         style="display:inline;fill:#f8e881;fill-opacity:1;stroke-width:0.215909;marker:none;enable-background:new"
         d="m 63.000003,182 a 21.000001,21.000001 0 0 0 -21.000001,21 21.000001,21.000001 0 0 0 21.000001,21 21.000001,21.000001 0 0 0 21.000001,-21 21.000001,21.000001 0 0 0 -21.000001,-21 z m 0,7.73685 A 13.263158,13.263158 0 0 1 76.263161,203 13.263158,13.263158 0 0 1 63.000003,216.26316 13.263158,13.263158 0 0 1 49.736844,203 13.263158,13.263158 0 0 1 63.000003,189.73685 Z" />
      <g
         id="g10030"
         transform="matrix(2.7999991,0,0,2.7999991,-911.99962,-225.57716)"
         inkscape:label="file audio music mp3"
         style="fill:#f5c211;fill-opacity:1;stroke:#2e3436;stroke-width:0.357143;stroke-opacity:1">
        <title
           id="title10026">audio-x-generic</title>
        <path
           id="path10028"
           style="color:#000000;fill:#e5a50a;fill-opacity:1;stroke:none;stroke-width:0.357143;stroke-linecap:round;stroke-linejoin:round;-inkscape-stroke:none"
           d="m 347.99998,164.87372 c -1.64501,0 -3,1.35499 -3,3 v 4.3418 c -0.45565,-0.21871 -0.96431,-0.3418 -1.5,-0.3418 -1.92115,0 -3.5,1.57885 -3.5,3.5 0,1.92115 1.57885,3.5 3.5,3.5 1.91528,0 3.49039,-1.56924 3.5,-3.48242 3e-5,-0.006 0,-0.0117 0,-0.0176 v -7.49998 c 0,-0.56413 0.43587,-1 1,-1 h 4 c 0.56413,0 1,0.43587 1,1 v 4.3418 c -0.45565,-0.21871 -0.96431,-0.3418 -1.5,-0.3418 -1.92115,0 -3.5,1.57885 -3.5,3.5 0,1.92115 1.57885,3.5 3.5,3.5 1.92115,0 3.5,-1.57885 3.5,-3.5 v -7.5 c 0,-1.64501 -1.35499,-3 -3,-3 z m -4.5,9 c 0.84027,0 1.5,0.65973 1.5,1.5 v 0.0156 c -0.008,0.8328 -0.66497,1.4844 -1.5,1.4844 -0.84027,0 -1.5,-0.65973 -1.5,-1.5 0,-0.84027 0.65973,-1.5 1.5,-1.5 z m 8,0 c 0.84027,0 1.5,0.65973 1.5,1.5 0,0.84027 -0.65973,1.5 -1.5,1.5 -0.84027,0 -1.5,-0.65973 -1.5,-1.5 0,-0.84027 0.65973,-1.5 1.5,-1.5 z"
           sodipodi:nodetypes="sscssssssssscssssssssscssssssss" />
      </g>
      <g
         id="g322453"
         transform="matrix(2.7999991,0,0,2.7999991,-911.99962,-223.9998)"
         inkscape:label="file audio music mp3"
         style="fill:#f8ec9a;fill-opacity:1;stroke:#2e3436;stroke-width:0.357143;stroke-opacity:1">
        <title
           id="title322447">audio-x-generic</title>
        <path
           id="path121145"
           style="color:#000000;fill:#f6d32d;fill-opacity:1;stroke:none;stroke-width:0.357143;stroke-linecap:round;stroke-linejoin:round;-inkscape-stroke:none"
           d="m 28,669 c -1.64501,0 -3,1.35499 -3,3 v 4.3418 C 24.544348,676.12309 24.035688,676 23.5,676 c -1.92115,0 -3.5,1.57885 -3.5,3.5 0,1.92115 1.57885,3.5 3.5,3.5 1.91528,0 3.490392,-1.56924 3.5,-3.48242 2.9e-5,-0.006 0,-0.0117 0,-0.0176 V 672 c 0,-0.56413 0.43587,-1 1,-1 h 4 c 0.56413,0 1,0.43587 1,1 v 4.3418 C 32.544348,676.12309 32.035688,676 31.5,676 c -1.92115,0 -3.5,1.57885 -3.5,3.5 0,1.92115 1.57885,3.5 3.5,3.5 1.92115,0 3.5,-1.57885 3.5,-3.5 V 672 c 0,-1.64501 -1.35499,-3 -3,-3 z m -4.5,9 c 0.84027,0 1.5,0.65973 1.5,1.5 v 0.0156 C 24.9918,680.3484 24.335031,681 23.5,681 c -0.84027,0 -1.5,-0.65973 -1.5,-1.5 0,-0.84027 0.65973,-1.5 1.5,-1.5 z m 8,0 c 0.84027,0 1.5,0.65973 1.5,1.5 0,0.84027 -0.65973,1.5 -1.5,1.5 -0.84027,0 -1.5,-0.65973 -1.5,-1.5 0,-0.84027 0.65973,-1.5 1.5,-1.5 z"
           transform="translate(319.99998,-504.00002)"
           sodipodi:nodetypes="sscssssssssscssssssssscssssssss" />
      </g>
      <path
         id="path15170"
         style="font-variation-settings:'wght' 700;fill:#241f31;fill-opacity:1;fill-rule:evenodd;stroke:none;stroke-width:2;stroke-linecap:round;stroke-linejoin:round;stroke-dasharray:0.999997, 2;stop-color:#000000"
         d="m 168.06576,172 c -2.12464,1e-4 -4.10991,1.90016 -4.11,4.02479 0,0.87169 0.0977,2.08665 -0.40924,2.59359 -1.661,1.3862 -3.54669,2.34354 -3.54669,4.44535 l 1.7e-4,3.7055 c 3e-5,0.68184 0.54893,1.23077 1.23077,1.23077 h 13.53846 C 175.45108,188 176,187.45107 176,186.76923 l -1.7e-4,-3.7055 c 0,-2.20282 -1.97382,-3.13233 -3.39818,-4.44535 -0.58968,-0.85214 -0.60733,-1.62771 -0.60733,-2.59359 -10e-5,-2.12475 -1.80379,-4.02486 -3.92854,-4.02479 z m 0,2.61268 c 0.68182,-1.2e-4 1.23463,0.55255 1.23467,1.23438 1.2e-4,0.68194 -0.55273,1.23479 -1.23467,1.23467 -0.68183,-4e-5 -1.2345,-0.55285 -1.23438,-1.23467 5e-5,-0.68171 0.55267,-1.23433 1.23438,-1.23438 z"
         sodipodi:nodetypes="ccccsscccccccccccc" />
    </g>
    <g
       inkscape:groupmode="layer"
       id="layer3"
       inkscape:label="grid"
       style="display:inline"
       sodipodi:insensitive="true">
      <circle
         cx="64.000031"
         cy="236"
         r="59.504131"
         id="circle2892"
         style="display:inline;opacity:0.1;vector-effect:none;fill:none;fill-opacity:1;stroke:#000000;stroke-width:0.99;stroke-linecap:butt;stroke-linejoin:miter;stroke-miterlimit:4;stroke-dasharray:0.99, 0.99;stroke-dashoffset:0;stroke-opacity:1;marker:none;marker-start:none;marker-mid:none;marker-end:none;paint-order:normal;enable-background:new" />
      <rect
         ry="7.9292889"
         rx="8.701004"
         y="180.49496"
         x="20.495007"
         height="111.01005"
         width="87.009987"
         id="rect2894"
         style="display:inline;opacity:0.1;vector-effect:none;fill:none;fill-opacity:1;stroke:#000000;stroke-width:0.99;stroke-linecap:butt;stroke-linejoin:miter;stroke-miterlimit:4;stroke-dasharray:0.99, 0.99;stroke-dashoffset:0;stroke-opacity:1;marker:none;marker-start:none;marker-mid:none;marker-end:none;paint-order:normal;enable-background:new" />
      <rect
         ry="7.9238095"
         rx="7.9238095"
         y="184.49524"
         x="12.495266"
         height="103.00952"
         width="103.00952"
         id="rect2896"
         style="display:inline;opacity:0.1;vector-effect:none;fill:none;fill-opacity:1;stroke:#000000;stroke-width:0.99;stroke-linecap:butt;stroke-linejoin:miter;stroke-miterlimit:4;stroke-dasharray:0.99, 0.99;stroke-dashoffset:0;stroke-opacity:1;marker:none;marker-start:none;marker-mid:none;marker-end:none;paint-order:normal;enable-background:new" />
      <rect
         ry="8.701005"
         rx="7.9292889"
         y="200.49496"
         x="8.4950066"
         height="87.010048"
         width="111.01004"
         id="rect2898"
         style="display:inline;opacity:0.1;vector-effect:none;fill:none;fill-opacity:1;stroke:#000000;stroke-width:0.99;stroke-linecap:butt;stroke-linejoin:miter;stroke-miterlimit:4;stroke-dasharray:0.99, 0.99;stroke-dashoffset:0;stroke-opacity:1;marker:none;marker-start:none;marker-mid:none;marker-end:none;paint-order:normal;enable-background:new" />
      <path
         inkscape:connector-curvature="0"
         id="path2900"
         d="M 2.6e-5,288.99999 H 128.00003"
         style="display:inline;fill:none;stroke:#62a0ea;stroke-width:2;stroke-linecap:butt;stroke-linejoin:miter;stroke-miterlimit:4;stroke-dasharray:none;stroke-opacity:1;enable-background:new" />
    </g>
  </g>
</svg>
